<svg xmlns="http://www.w3.org/2000/svg" id="Layer_1" data-name="Layer 1" viewBox="0 0 208.2 50"><defs><style>.cls-1{fill:#fff;}</style></defs><path class="cls-1" d="M37.32,38.44h.13a.92.92,0,0,0,1-.75l1.07-5a2.4,2.4,0,0,0,0-.29c0-.27-.25-.41-.75-.41H38.7l.09-.43h2.87a3,3,0,0,1,2.15.73,2.71,2.71,0,0,1,.75,2.06,4.75,4.75,0,0,1-1.11,3.25,3.74,3.74,0,0,1-3,1.3H37.23l.09-.43Zm2.92-.1a2.83,2.83,0,0,0,2.35-1.13,4.89,4.89,0,0,0,.86-3c0-1.44-.65-2.17-1.94-2.17h-.82l-1.33,6.29Zm8.12-1h-.07C47.8,38.44,47.16,39,46.37,39a1.09,1.09,0,0,1-1-.5,2.41,2.41,0,0,1-.34-1.38,4.38,4.38,0,0,1,.88-2.63,2.59,2.59,0,0,1,2.17-1.2,1.93,1.93,0,0,1,1.2.37l.46-.28h.33l-.7,3.29a7,7,0,0,0-.16,1.13c0,.34.12.52.34.52a1.59,1.59,0,0,0,.75-.27l.18.29a2.28,2.28,0,0,1-1.45.61c-.54,0-.79-.29-.79-.86A3.39,3.39,0,0,1,48.36,37.33ZM49,34.09a.83.83,0,0,0-.77-.36,1.69,1.69,0,0,0-1.47,1.11,4.64,4.64,0,0,0-.59,2.28c0,.79.23,1.18.66,1.18s.7-.25,1.06-.75a4.18,4.18,0,0,0,.75-1.65L49,34.09Zm2.9,4.78h-1l.86-4.12a2.32,2.32,0,0,0,.06-.46c0-.31-.24-.47-.72-.47H51l.09-.43H53l-.27,1.29h.09c.57-.93,1.18-1.38,1.88-1.38a1,1,0,0,1,1.11,1.13,7.14,7.14,0,0,1-.18,1.13l-.27,1.22a4.58,4.58,0,0,0-.14,1.09c0,.32.11.5.36.5a1.2,1.2,0,0,0,.66-.23l.18.3a2,2,0,0,1-1.25.58.83.83,0,0,1-.67-.27,1.08,1.08,0,0,1-.25-.74,6.68,6.68,0,0,1,.2-1.39l.23-1.06a5,5,0,0,0,.15-1c0-.41-.15-.61-.47-.61a1.6,1.6,0,0,0-1.18.77,4,4,0,0,0-.77,1.54l-.56,2.56Zm8.48-1.3a.3.3,0,0,1,.12.25,1,1,0,0,1-.48.77,2,2,0,0,1-1.29.37,1.94,1.94,0,0,1-1.45-.57,2.19,2.19,0,0,1-.54-1.56,4,4,0,0,1,.86-2.47,2.68,2.68,0,0,1,2.2-1.13,2,2,0,0,1,1.1.27.82.82,0,0,1,.41.7.65.65,0,0,1-.25.52,1,1,0,0,1-.65.21,1.68,1.68,0,0,0-.21-.89.66.66,0,0,0-.59-.34c-.47,0-.9.37-1.24,1.07a4.68,4.68,0,0,0-.54,2.1c0,.93.38,1.41,1.13,1.41a1.62,1.62,0,0,0,1.42-.71Zm4.69,0a.3.3,0,0,1,.11.25,1,1,0,0,1-.47.77,2,2,0,0,1-1.29.37,1.93,1.93,0,0,1-1.45-.57,2.2,2.2,0,0,1-.55-1.56,4,4,0,0,1,.86-2.47,2.7,2.7,0,0,1,2.2-1.13,1.54,1.54,0,0,1,1,.32,1,1,0,0,1,.36.86A1.74,1.74,0,0,1,65,35.85a3.55,3.55,0,0,1-2.1.62h-.37a2.32,2.32,0,0,0,0,.43c0,.92.39,1.4,1.13,1.4A1.76,1.76,0,0,0,65,37.57ZM62.53,36h.09a2.4,2.4,0,0,0,1.49-.43,1.39,1.39,0,0,0,.59-1.14c0-.45-.2-.68-.59-.68s-.63.21-.92.64A3.49,3.49,0,0,0,62.53,36Zm67.94,1.33a.4.4,0,0,1,.13.34,1.1,1.1,0,0,1-.56.88,3.37,3.37,0,0,1-3.67-.34,2.66,2.66,0,0,1-.75-2,5.07,5.07,0,0,1,1.22-3.38,3.82,3.82,0,0,1,3-1.42,2.81,2.81,0,0,1,1.41.31.93.93,0,0,1,.5.84.72.72,0,0,1-.28.59,1.17,1.17,0,0,1-.72.23c0-.93-.34-1.41-1-1.41a2.5,2.5,0,0,0-2.13,1.38,5.75,5.75,0,0,0-.86,3c0,1.29.62,1.92,1.84,1.92a2.3,2.3,0,0,0,1.88-.93Zm4.68.2a.3.3,0,0,1,.11.25,1,1,0,0,1-.47.77,2,2,0,0,1-1.29.37,1.93,1.93,0,0,1-1.45-.57,2.19,2.19,0,0,1-.54-1.56,4,4,0,0,1,.86-2.47,2.67,2.67,0,0,1,2.19-1.13,1.54,1.54,0,0,1,1,.32,1,1,0,0,1,.36.86,1.74,1.74,0,0,1-.86,1.44,3.53,3.53,0,0,1-2.1.62h-.36a1.56,1.56,0,0,0,0,.43c0,.92.39,1.4,1.13,1.4A1.76,1.76,0,0,0,135.15,37.57ZM132.66,36h.09a2.4,2.4,0,0,0,1.49-.43,1.39,1.39,0,0,0,.59-1.14c0-.45-.2-.68-.59-.68a1.16,1.16,0,0,0-.92.64,3.6,3.6,0,0,0-.66,1.61Zm4.55,2.83h-1l.86-4.12a2.46,2.46,0,0,0,.07-.46c0-.31-.25-.47-.73-.47h-.09l.09-.43h1.9l-.27,1.29h.09c.57-.93,1.18-1.38,1.88-1.38s1.09.38,1.09,1.13a7.14,7.14,0,0,1-.18,1.13l-.28,1.22a5.09,5.09,0,0,0-.13,1.09c0,.32.11.5.36.5a1.22,1.22,0,0,0,.66-.23l.18.3a2,2,0,0,1-1.25.58.87.87,0,0,1-.68-.27,1.13,1.13,0,0,1-.24-.74,6.68,6.68,0,0,1,.2-1.39l.23-1.06a5,5,0,0,0,.15-1c0-.41-.15-.61-.47-.61a1.6,1.6,0,0,0-1.18.77,3.85,3.85,0,0,0-.77,1.54Zm7.47-.77.18.38a2.44,2.44,0,0,1-1.38.5c-.75,0-1.11-.41-1.11-1.2a4,4,0,0,1,.09-.86l.63-3h-.79l.09-.4c.68,0,1.2-.48,1.56-1.45h.48l-.27,1.26h1.24l-.13.59H144l-.61,2.92a4.34,4.34,0,0,0-.14.89.49.49,0,0,0,.55.56,1.78,1.78,0,0,0,.86-.22Zm4.25-.53a.3.3,0,0,1,.12.25,1,1,0,0,1-.48.77,2,2,0,0,1-1.29.37,1.93,1.93,0,0,1-1.45-.57,2.19,2.19,0,0,1-.54-1.56,4,4,0,0,1,.86-2.47,2.68,2.68,0,0,1,2.19-1.13,1.54,1.54,0,0,1,1,.32,1,1,0,0,1,.36.86,1.74,1.74,0,0,1-.86,1.44,3.53,3.53,0,0,1-2.1.62h-.36a1.56,1.56,0,0,0,0,.43c0,.92.39,1.4,1.14,1.4A1.68,1.68,0,0,0,148.93,37.57ZM146.44,36h.09a2.45,2.45,0,0,0,1.5-.43,1.41,1.41,0,0,0,.59-1.14c0-.45-.21-.68-.59-.68a1.16,1.16,0,0,0-.93.64,4.28,4.28,0,0,0-.66,1.61Zm7.22-1.29c0-.55-.13-.82-.41-.82s-.65.32-1,.93a7.59,7.59,0,0,0-.8,2.13l-.38,1.88h-.95l.86-4.12a2.46,2.46,0,0,0,.07-.46c0-.31-.27-.47-.82-.47h-.09l.09-.43H152l-.22,1.47h.11a3.53,3.53,0,0,1,.81-1.25,1.48,1.48,0,0,1,.93-.34c.57,0,.84.23.84.71s-.27.77-.84.77Zm4.19.13a1.42,1.42,0,0,0-.25-.84.83.83,0,0,0-.68-.31,1,1,0,0,0-.72.25.81.81,0,0,0-.28.63.86.86,0,0,0,.25.59,2.71,2.71,0,0,0,.8.47,1.76,1.76,0,0,1,1.22,1.59,1.53,1.53,0,0,1-.59,1.22,2.36,2.36,0,0,1-1.54.48,2.25,2.25,0,0,1-1.24-.32.94.94,0,0,1-.46-.84.69.69,0,0,1,.18-.5.68.68,0,0,1,.46-.18,1.53,1.53,0,0,0,.31,1,1.06,1.06,0,0,0,.86.36c.75,0,1.11-.32,1.11-.95a.85.85,0,0,0-.22-.61,3.06,3.06,0,0,0-.8-.52,2.51,2.51,0,0,1-1-.73,1.58,1.58,0,0,1-.25-.86,1.38,1.38,0,0,1,.54-1.11,2.22,2.22,0,0,1,1.43-.43,2.1,2.1,0,0,1,1.18.28.82.82,0,0,1,.43.7c0,.43-.23.63-.75.63ZM74.75,44.5ZM86,5.61a6.64,6.64,0,0,0,3.15-.38h0a7.83,7.83,0,0,0,1.69-.86l.43-.25s0,0,0,0a1.63,1.63,0,0,1,1.45.16c.29.13.65.34,1.06.54.21.11.43.23.64.32,0,0,.4.2.86.38a3.18,3.18,0,0,0,.7.16,3.29,3.29,0,0,0,1,0c1.4-.38,2.72-2.31,3.06-2.71a3.53,3.53,0,0,1,2.1-1.36c1.2-.27,2.4.25,2.53,1.33A3.85,3.85,0,0,1,103.44,6a2.56,2.56,0,0,1-2.21.7,8.72,8.72,0,0,1,.92.72,1.48,1.48,0,0,0,.93,0h0a.69.69,0,0,0,.13,0,3.52,3.52,0,0,0,1.66-1.54c.45-.74,1.08-2.37.61-3.48a3.16,3.16,0,0,0-3-1.95c-2.15-.29-4.19,3.13-5.48,3.69a1.35,1.35,0,0,1-1.29,0S93,2.69,92.92,2.69A3.73,3.73,0,0,0,90.18,3a8.19,8.19,0,0,1-1.94,1,6.24,6.24,0,0,1-2,.16,1.33,1.33,0,0,1-.93-1.77c.2-.79.34-.93.16-1.42a1.86,1.86,0,0,0-.59-.66A3,3,0,0,0,84.32,0a.84.84,0,0,1,.16.38,1.45,1.45,0,0,1,0,.3,2.25,2.25,0,0,1-.14.7A6.38,6.38,0,0,0,84,2.81,4.26,4.26,0,0,0,84.1,4,1.88,1.88,0,0,0,86,5.61Zm18.15,3.26a1.86,1.86,0,0,0,0,.39,7.78,7.78,0,0,1,.79,1.2s.16.31.18.38a1.42,1.42,0,0,0,.27-1.76c-.58-1,2.63-2.49,4.37-.66s2,7.2,7.79,3.83l.54-.39a4.22,4.22,0,0,1-5.18-2.62c-1.41-3.74-5.73-2.88-7-2.38a2.8,2.8,0,0,0-1.81,2Zm4.16,8.42a6.86,6.86,0,0,0,.93-1.35,1.87,1.87,0,0,0,.18-.41,2,2,0,0,0-1-2s-1.49-1-1.61-1.11a.75.75,0,0,0-.11,1.2c.61.77,1.56.82,1.56,1.7a2,2,0,0,1-1.4,1.9,1.32,1.32,0,0,1-1.52-.41c-.11-.16-.25-.36-.29-.43a3.52,3.52,0,0,1-1.56-.09,7.5,7.5,0,0,0,2.53,2.85c1.07.14,1.34-.45,1.34-.45s-.3-.2-.39-.38a2.86,2.86,0,0,0,1.29-1Zm-4.57-4.55c-.5-4.41-2.74-5.61-2.74-5.61l-.72.61c.9.45,1.61,2.63,2.31,4.44s1.56,1.92,1.56,1.92A4.62,4.62,0,0,1,103.76,12.74Zm18,24.18h0a47.39,47.39,0,0,0-9.1-6.36l-1.41-.77c-1.56-.86-3.62-2-6.35-3.69s-3.26-3.1-3.1-4.26a2.92,2.92,0,0,1,1.94-2.46,3.19,3.19,0,0,1,1-.23l-1-1a4.66,4.66,0,0,0-3.39,3,1.14,1.14,0,0,0-.09.3c-.61,1.7-1.88,4.41-1.88,4.41l.59.12a27.24,27.24,0,0,1,8.75,3.35c.3.18.59.33.89.52,1.17.72,2.28,1.47,3.35,2.21,0,0,0,0,0,0,.54.45,1,.88,1.43,1.29a9.4,9.4,0,0,1,1.79,2,6.8,6.8,0,0,1,.49,1,5.2,5.2,0,0,1,.27.88,4.27,4.27,0,0,1,.1.93c0,1.81-.41,6.86-11.89,9s-25.34-.32-29.55-2.78c.32.54,9.84,7.76,29.55,5.16s24.4.15,24.4.15S129.36,43.91,121.75,36.92ZM101.93,15.19a12.06,12.06,0,0,1-1.79-4.37c-.07-.39-.11-.66-.11-.66v0s-.43,1.49-3.31,6a16.12,16.12,0,0,1-7.83,6c-.7-.79-1.65-2.65.52-5.87q.65-.91,1.11-1.62c2-3,2.29-3.65,2.63-5.62a2.18,2.18,0,0,0-.05-1,1.71,1.71,0,0,0-.4-.68,1.75,1.75,0,0,0-.55-.38,5.9,5.9,0,0,0-.63-.25,8.89,8.89,0,0,0-1.59-.25h0s.54.61.68,2.81a8.69,8.69,0,0,1-.88,4.43A25.54,25.54,0,0,1,87.65,17a13.51,13.51,0,0,0-2.88,6.81c0,.41,0,.84,0,1.29.91-.09,1.84-.13,2.76-.18-3.78,2.94-8,5.86-11.92,8.35-.21.14-.39.3-.59.43-2.4,1.75-5.16,3.47-7.24,5.66A13.36,13.36,0,0,0,66,41.74c1.83-1.43,6.43-2.83,6.43-2.83C77.06,34,85.59,28.09,86.06,27.75c1.18-.95,2.34-1.9,3.49-2.9q2.28-2,4.41-4.07A33.68,33.68,0,0,1,101.93,15.19ZM.66,29.81c2.06,0,2.71-.68,3.73-2.47L14.53,10.57h1.24L19,27.23c.31,1.79.74,2.6,2.69,2.6l-.11.59H13.78l.12-.59c1.24,0,2.35-.2,2.35-1.47a7.38,7.38,0,0,0-.16-1.24l-.54-3.28H8.19L6.11,27.48A3.82,3.82,0,0,0,5.48,29c0,.68.72.88,1.9.88l-.11.59H.54l.12-.61Zm8.19-7.15h6.49l-1.42-8.74h-.07Zm16.18-3a4.42,4.42,0,0,0,.11-.92c0-.21-.11-.48-.31-.48-.57,0-1.81,1.29-2.61,2.06L21.84,20c.86-.9,3.08-3.55,4.55-3.55a1.25,1.25,0,0,1,1.2,1.38,10.63,10.63,0,0,1-.25,1.86l-.45,2.1.06.07c.57-1.33,2.2-5.39,4.51-5.39a1.33,1.33,0,0,1,1.42,1.41,1.44,1.44,0,0,1-1.4,1.49c-.68,0-1-.5-1.31-.5-.86,0-3.4,3.65-5,11.64H22.86Zm14.6,7.54c-.91,1-3.22,3.56-4.78,3.56a1.29,1.29,0,0,1-1.29-1.38,9.94,9.94,0,0,1,.25-1.86l2-9.87H33.34l.18-.93c2.74,0,4.14-1.42,4.91-4.43h.77l-.91,4.43h3.89l-.18.93H38.11l-2,9.87a4.78,4.78,0,0,0-.16.93.49.49,0,0,0,.45.47c.64,0,2-1.22,2.81-2.06Zm4.93-14a7.39,7.39,0,0,0,.16-1.14c0-1.1-.86-1.38-2.26-1.38l.11-.49,5-.48L44.63,24.38l.07.07c1-2.65,3.73-8,6.69-8a1.73,1.73,0,0,1,1.77,2A11.9,11.9,0,0,1,52.89,20l-1.7,7.47a4.6,4.6,0,0,0-.11.93c0,.2.11.48.31.48.57,0,1.82-1.29,2.61-2.06l.38.31c-.86.91-3.08,3.56-4.59,3.56a1.23,1.23,0,0,1-1.16-1.38,8.07,8.07,0,0,1,.28-1.86l1.6-7.15a6.55,6.55,0,0,0,.21-1.25c0-.47-.21-.86-.68-.86-2.29,0-5.93,8.83-6.59,12.2H41.12L44.56,13.2Zm19.37,11-.07-.06c-1.29,3.46-3.78,6.58-6.08,6.58-1.23,0-2-.9-2-2.37a18.27,18.27,0,0,1,.41-2.47l1.42-6.23a4.42,4.42,0,0,0,.11-.92c0-.21-.11-.48-.29-.48-.59,0-1.86,1.29-2.63,2.06L54.47,20c.86-.9,3.08-3.55,4.55-3.55a1.22,1.22,0,0,1,1.16,1.38,8.57,8.57,0,0,1-.28,1.86L58.3,26.8a6.43,6.43,0,0,0-.21,1.25c0,.47.21.86.68.86,2.08,0,6.09-6.7,6.59-12.2h2.4L65.61,27.5a4.65,4.65,0,0,0-.12.93c0,.29.12.48.3.48.59,0,1.85-1.29,2.6-2.06l.39.31c-.86.91-3.08,3.56-4.55,3.56a1.24,1.24,0,0,1-1.16-1.38,9.94,9.94,0,0,1,.25-1.86Zm8.17-4.55a4.42,4.42,0,0,0,.11-.92c0-.21-.11-.48-.31-.48-.57,0-1.81,1.29-2.6,2.06L68.91,20c.86-.9,3.08-3.55,4.55-3.55a1.25,1.25,0,0,1,1.2,1.38,9.76,9.76,0,0,1-.25,1.86L74,21.75l.07.07c.56-1.33,2.19-5.39,4.5-5.39A1.33,1.33,0,0,1,80,17.84a1.44,1.44,0,0,1-1.4,1.49c-.68,0-1-.5-1.31-.5-.86,0-3.4,3.65-5,11.64H69.91L72.1,19.62Zm44.13,10.19c2.29,0,2.83-.81,3.21-2.81l2.63-13a9,9,0,0,0,.18-1.25c0-1.33-1.11-1.54-2.28-1.54l.11-.59h6l2.65,17h.07l9.3-17h5.86l-.12.59c-2.26,0-2.8.82-3.19,2.81L138,27.05a8.43,8.43,0,0,0-.18,1.24c0,1.34,1.11,1.54,2.26,1.54l-.11.59h-7.74l.11-.59c2.2,0,2.74-.81,3.17-2.8l2.92-14.63-.07-.06-9.89,18.08h-1.54l-2.85-18.08H124L121.1,27a6.43,6.43,0,0,0-.21,1.24c0,1.34,1.11,1.54,2.38,1.54l-.11.59h-7l.11-.59Zm34.24-5.64-.07-.06c-1.29,3.46-3.78,6.58-6.08,6.58-1.23,0-2-.9-2-2.37a19.76,19.76,0,0,1,.4-2.47l1.43-6.23a4.42,4.42,0,0,0,.11-.92c0-.21-.11-.48-.29-.48-.59,0-1.86,1.29-2.63,2.06L141,20c.86-.9,3.08-3.55,4.55-3.55.75,0,1.15.63,1.15,1.38a8.51,8.51,0,0,1-.27,1.86l-1.6,7.15a6.43,6.43,0,0,0-.21,1.25c0,.47.21.86.68.86,2.08,0,6.09-6.7,6.59-12.2h2.33L152.08,27.5a4.65,4.65,0,0,0-.12.93c0,.29.12.48.3.48.59,0,1.85-1.29,2.6-2.06l.39.31c-.86.91-3.08,3.56-4.55,3.56a1.24,1.24,0,0,1-1.16-1.38,9.94,9.94,0,0,1,.25-1.86l.68-3.31Zm8.13-4.55a5.22,5.22,0,0,0,.11-.92c0-.21-.11-.48-.32-.48-.56,0-1.81,1.29-2.6,2.06L155.4,20c.86-.9,3.08-3.55,4.55-3.55a1.25,1.25,0,0,1,1.2,1.38,9.76,9.76,0,0,1-.25,1.86l-.45,2.1.07.07c.56-1.33,2.19-5.39,4.5-5.39a1.34,1.34,0,0,1,1.43,1.41A1.45,1.45,0,0,1,165,19.33c-.67,0-1-.5-1.31-.5-.86,0-3.39,3.65-5,11.64H156.4Zm10.86,0a4.42,4.42,0,0,0,.11-.92c0-.21-.11-.48-.32-.48-.56,0-1.81,1.29-2.6,2.06l-.38-.32c.86-.9,3.07-3.55,4.55-3.55a1.26,1.26,0,0,1,1.2,1.38,10.63,10.63,0,0,1-.25,1.86l-.46,2.1.07.07c.57-1.33,2.2-5.39,4.5-5.39a1.34,1.34,0,0,1,1.43,1.41,1.44,1.44,0,0,1-1.4,1.49c-.68,0-1-.5-1.32-.5-.86,0-3.39,3.65-5,11.64h-2.33ZM183.53,26l-.06-.06c-.66,1.31-2.36,4.79-5.05,4.79-2.38,0-2.9-1.9-2.9-3.6,0-3,2.92-10.7,7.24-10.7A2.18,2.18,0,0,1,185.05,18h.07l.2-1.32h2.33l-2.17,10.8a4.52,4.52,0,0,0-.11.93c0,.2.11.47.31.47.57,0,1.81-1.29,2.61-2.06l.38.32c-.86.91-3.08,3.55-4.55,3.55a1.26,1.26,0,0,1-1.2-1.38,12.15,12.15,0,0,1,.27-1.85l.34-1.5Zm-4.05,3.24c2.38,0,5.25-6.41,5.25-9.78,0-.93-.29-2-1.42-2-2.94,0-5.09,6.41-5.09,9.51C178.22,28.63,178.89,29.2,179.48,29.2Zm16.73.05c1-1.48,3.69-5.82,3.69-8.63,0-1.38-.89-1.95-.89-2.85a1.46,1.46,0,0,1,1.5-1.38c.92,0,1.47.68,1.47,1.79,0,6.13-9.39,18.51-13.2,18.51a1.42,1.42,0,0,1-1.51-1.4,1.38,1.38,0,0,1,1.38-1.43c.93,0,1.2.82,1.88.82,1.11,0,3.19-2.33,3.82-3.1L192.41,20.1c-.25-1.31-.5-1.86-1-1.86-.68,0-1.94,1.16-2.6,1.7l-.36-.38c.65-.59,3.37-3.17,4.39-3.17s1.4,1.06,1.6,2.26l1.75,10.6Zm7-11A2.77,2.77,0,1,1,206,20.94a2.72,2.72,0,0,1-2.76-2.67ZM206,20.53a2.25,2.25,0,1,0-2.35-2.26A2.33,2.33,0,0,0,206,20.53Zm-1.38-1c.36,0,.43-.07.43-.47v-1.7c0-.39-.09-.39-.43-.43v-.23h1.47c.73,0,1.29.12,1.29.77s-.52.68-.86.77c.75.43.5,1.09.82,1.09.15,0,.18-.32.18-.39h.25c0,.27-.12.84-.64.84-1,0-.38-1.47-1.27-1.47h-.13V19c0,.46,0,.43.45.5v.23h-1.56ZM205.67,18h.27c.34,0,.68-.09.68-.54s-.12-.59-.52-.59-.43.16-.43.45Z" transform="translate(-0.54)"></path></svg>