<svg xmlns="http://www.w3.org/2000/svg" viewBox="0 0 5240.6 5146.11">
  <defs>
    <style>
      .cls-1 {
        fill-rule: evenodd;
      }
    </style>
  </defs>
  <g id="Layer_2" data-name="Layer 2">
    <g id="Layer_1-2" data-name="Layer 1">
      <g id="Layer_1-2-2" data-name="Layer 1-2">
        <path class="cls-1" d="M5009.49,4073.36l226.59,431.13c10.39,20.7.68,30.36-7.11,36.56-98.4,79.42-189.36,118.33-267.1,147.81-162.63,61.64-329.82,14.38-377.6-163.59-37.71-140.3,22.53-277.45,147-343.36,105.54-55.93,201.46-101.39,244.76-118.53,16-6.23,23.73-9.75,33.44,10.14Z"/>
        <path class="cls-1" d="M647.72,147.82,163.64,1.86C140.48-4.72,133.22,7.54,128.76,17c-56,120.08-73.43,223.78-84.45,311.58-23.1,183.63,63.7,349,252.78,361.17,149.07,9.67,271.77-82.59,308.23-227.23C636.2,340,658.88,229.71,665.76,180.71,668.13,162.76,669.93,153.72,647.72,147.82Z"/>
        <path class="cls-1" d="M2135.19,3772.9s-157.39,201.27-164.94,211.73-16,3-22.94-2.28-140.86-106.74-170.26-137.82-103.19-132.75-48.74-207.73,149.09-72.19,205.1-41.55,106.27,72.31,127.44,90.32,61.6,50.22,71.15,58.21a44.83,44.83,0,0,1,12.74,16l-9.55,13.22Zm1060,763c-110.58-214.13-228-380.08-483.66-424.06-122.17-21.05-240.06-69.83-345.76-137-44.5-28.32-172-132.19-188.6-148.61s-30.56,4-39.71,14.58-99.1,126.36-106.9,137.23-2.6,22.29,11.7,32c74,51.05,328.1,226,398.93,355.06,77.38,141.22,163.79,363.14,295.91,433,148.33,78.46,476.43,112.74,511,113.54,39.31.91,54.85-3.48,59.13-15.66,16.38-46.74-85.81-310-111.86-360.18Z"/>
        <g>
          <path d="M1236.18,3354.37h0l-5.91-3-5.79-2.93-5.87-2.92-5.93-2.85-5.9-2.82-5.9-2.81-5.94-2.79-5.92-2.71-6-2.68-6-2.68-6-2.66-6-2.54-6.06-2.62-6.16-2.32-6-2.53-6.16-2.33-6.16-2.32-6.17-2.32-6.16-2.33L1116,3302l-6.12-2.26-6.12-2.25-6.1-2.22-6-2.16-6.08-2.18-6-2.16-6.06-2.15-6.18-2-6.18-2-6.18-2-6.18-1.89-1-.35-11.48,38.25.75.29,5.88,1.88,6,2,5.91,1.91,5.93,1.95,6,2,6,2,6,2.05,6,2.08,6,2,6,2.09,6,2.08,6.06,2.16,5.88,2.26,5.8,2.26,5.86,2.37,5.84,2.34,5.86,2.37,5.77,2.37,5.78,2.47,5.79,2.56,5.8,2.5,5.69,2.56,5.76,2.58,5.76,2.66,5.73,2.69,5.71,2.65,5.7,2.8,5.6,2.72,5.73,2.83,5.6,2.86,5.69,2.85h0l18.29-35.49Zm-306.33-105.9h0l-6.29-1.3-6.38-1.24-6.32-1.15-6.37-1.15-6.32-1.14-6.44-1.11-6.36-1.07-6.38-1-6.41-1-6.35-1-6.25-.81-6.32-.77-6.39-.72-6.32-.76-6.31-.77-6.42-.7-6.39-.72-6.38-.72-6.42-.7-6.46-.68-6.42-.71-6.52-.63-6.48-.66-6.49-.66-6.49-.66-6.55-.62-6.45-.44-6.56-.62-6.4-.38-6.44-.36-6.41-.38-2.59-.07-1.72,39.93,2.43.13,6.19.32,6.27.32,6.27.38,6.2.36,6.24.49,6.27.46,6.24.49,6.24.48,6.38.72,6.19.56,6.32.77,6.32.76,6.32.77,6.25.8,6.25.81,6.28.79,6.18.85,6.29.78,6.11.89,6.22.83,6.21.83,6.12.89,6.15.87,6.08.92,6.14.87,6,.93,6.14,1.53,6,1,6.2,1.17,6.16,1.19,6.1,1.18h0l7.9-39.17Zm-322.7-24.93-4.6.19-6.37.35-6.38.26-6.47.36-6.4.38-6.36.3-6.46.45-6.37.5-6.39.4-6.41.52-6.3.55-6.41.51-6.37.59-6.39.55-6.33.66-6.3.68-6.42.67-6.34.71-6.31.68-6.39.84-6.27.76-6.29.78-6.4.84-6.24.88-6.37.87-6.25.93-6.3.92-6.23,1-6.37,1-6.21,1.06-6.25,1.08-6.17,1,7.11,39.59,6-1,6.18-1,6.1-1,6-1,6.09-.88,6.16-.93,6.16-.92,6.13-.82,6.17-.84,6.11-.84,6.17-.75,6.15-.78,6.14-.73,6.2-.71,6.2-.72,6.16-.69,6.17-.6,6.24-.56,6.17-.6,6.23-.59,6.18-.51,6.23-.51,6.18-.51,6.27-.43,6.2-.49,6.18-.37,6.25-.5,6.22-.3,6.21-.3,6.29-.35,6.13-.44,4.59-.18-1.67-39.93Zm-319.8,46.4-4.5,1.16-6.1,1.55-6,1.59-6,1.65-6,1.65-6,1.61-6,1.65-6,1.71-6,1.72L228.8,3286l-5.9,1.8-6,1.79-5.93,1.81-5.91,1.86-5.82,1.84-6,1.86-5.85,2-5.88,1.8-5.84,2-5.82,2-5.88,2-5.7,2.05-5.84,2.09-5.76,2L141,3315l-5.74,2.12-5.74,2.13-5.7,2.1-5.64,2.2-5.67,2.17-5.69,2.19-5.68,2.23-5.6,2.18-.48.3,14.91,37,.33-.21,5.9-1.94,5.46-2.14,5.5-2.12,5.55-2.19,5.5-2.07,5.61-2.09,5.53-1.85,5.6-2.13,5.58-1.93,5.63-2.06,5.63-2,5.61-2.1,5.69-1.9,5.7-2,5.68-1.85,5.68-1.9,5.71-1.87,5.72-1.78,5.75-1.8,5.79-1.83,5.77-1.76,5.71-1.93,5.64-1.59,5.87-1.92,5.7-1.73,5.89-1.65,5.79-1.59,5.91-1.62,5.86-1.63,5.85-1.58,5.93-1.58,5.87-1.46,4.45-1.17-10-38.61Z"/>
          <polygon class="cls-1" points="1551.01 3561.59 1453.86 3433.39 1356.64 3305.24 1334.02 3424.91 1233.53 3509.57 1392.26 3535.53 1551.01 3561.59 1551.01 3561.59"/>
        </g>
        <path d="M967.08,5125.39h0l-3.43-5.69-3.4-5.53-3.47-5.57-3.55-5.53-3.55-5.49-3.55-5.49-3.59-5.49-3.63-5.41-3.67-5.41-3.68-5.41-3.71-5.41-3.75-5.29-3.79-5.41-4-5.21-3.83-5.33-4-5.21-4-5.21-4-5.2-4-5.21-4-5.13-4-5.13-4-5.13-4-5.08-4-5-4-5.05-4-5-4-5-4.23-4.92-4.22-4.93-4.23-4.93-4.26-4.84-.69-.84L817,4988.47l.48.63,4,4.69,4,4.81,4,4.73,4,4.77,4,4.81,4,4.84,4,4.89,4,4.93,4,4.85,4,4.93,4,4.93,4,5,3.83,5,3.74,5,3.75,5.09,3.75,5.05,3.75,5.09,3.66,5.05,3.63,5.13,3.59,5.21,3.63,5.18,3.51,5.17,3.54,5.21,3.51,5.29,3.47,5.29,3.47,5.25,3.39,5.37,3.35,5.25,3.39,5.42,3.27,5.37,3.35,5.41h0l34.19-20.63ZM761.74,4874.61h0l-4.7-4.4-4.78-4.41-4.78-4.28-4.82-4.35-4.78-4.28-4.91-4.32-4.86-4.25-4.9-4.2-4.94-4.21-4.9-4.16-4.9-4-5-4-5-4-5-4-5-4-5.1-4-5.06-4-5.06-4-5.1-4-5.14-4-5.09-4-5.22-4-5.18-4-5.18-4-5.18-4-5.26-4-5.25-3.76-5.26-4-5.26-3.68-5.3-3.68-5.25-3.68-2.17-1.43-22.4,33.1,2,1.39,5.1,3.52,5.18,3.57,5.13,3.6,5.1,3.56,5.06,3.69,5.09,3.68,5.06,3.68,5.06,3.68,5.06,4,5,3.72,5,4,5,4,5,4,4.9,4,4.9,4,4.94,4,4.82,4,4.94,4,4.73,4,4.86,4,4.86,4,4.74,4,4.78,4,4.7,4,4.78,4,4.66,4,4.42,4.53,4.62,4,4.66,4.25,4.62,4.24,4.58,4.21h0l27.2-29.21ZM500,4684.17l-4-2.25-5.61-3-5.57-3.12-5.69-3.08-5.65-3-5.58-3.08-5.73-3-5.69-2.92-5.65-3-5.73-2.92-5.65-2.84-5.74-2.92L428,4646.2l-5.73-2.88-5.73-2.76-5.73-2.72L405,4635l-5.77-2.72-5.73-2.72-5.89-2.64-5.73-2.64-5.77-2.64-5.89-2.64-5.77-2.52-5.88-2.6-5.81-2.48-5.85-2.52-5.81-2.44-5.93-2.52-5.85-2.36-5.88-2.36-5.77-2.4L303,4634.28l5.61,2.33,5.81,2.36,5.73,2.32,5.65,2.36,5.64,2.44,5.73,2.44,5.73,2.44,5.65,2.52,5.69,2.52,5.65,2.48,5.65,2.6,5.65,2.57,5.6,2.6,5.65,2.64,5.65,2.64,5.61,2.64,5.57,2.72,5.61,2.8,5.57,2.72,5.62,2.76,5.53,2.8,5.57,2.85,5.53,2.8,5.57,2.92,5.53,2.84,5.45,2.92,5.53,2.92,5.46,3,5.45,3,5.53,3,5.45,2.84,4,2.25,19.51-34.88ZM203.38,4556l-4.44-1.37-6-1.88-6-1.8-6-1.76-6-1.76-5.92-1.76-6-1.76-6-1.68-6-1.68-6-1.6-6-1.56-6-1.6-6-1.56-6-1.52-5.92-1.48-6.08-1.56-6-1.4-5.92-1.48-6-1.4-6-1.36-6-1.4-5.92-1.24-6.08-1.28-5.92-1.36-6-1.25-6-1.2-6-1.2-6-1.2-6-1.08-6-1.12-6-1.12-6-1.08-5.92-1.08H6.7L0,4547.78H.56l6,1.44,5.76,1.05,5.8,1.08,5.88,1,5.76,1.12,5.88,1.16,5.68,1.32,5.88,1.13,5.76,1.28,5.88,1.2,5.84,1.24,5.88,1.16,5.84,1.36,5.88,1.32,5.8,1.4,5.84,1.37,5.85,1.4,5.8,1.48,5.84,1.48,5.88,1.48,5.84,1.52,5.81,1.48,5.64,1.6,6,1.44,5.76,1.53,5.89,1.68,5.76,1.68,5.88,1.72,5.85,1.68,5.8,1.72,5.88,1.76,5.77,1.84,4.4,1.33,11.74-38.1Z"/>
      </g>
      <path class="cls-1" d="M2625.06,1573.6c-11.87-41.12-47.12-143.84-55.48-205.67-29.38-217.79,85.83-409.27,54.69-574.33C2592.82,627.08,2452.2,441.78,2329,332.16c-124.29-110.48-161.58-104.3-238.95,51.79-81.2,163.62-208.43,489.12-134.65,668.48,63.7,155,201.39,340.84,243.92,484.57,17.27,58,32.63,129.47,40,159.78,2.56,10.67,6.91,14.54,16.16,11L2614.12,1596c12.22-5.28,15.33-7.35,11-22.27Zm28.38,59.11-401.25,127.43c-19,6.39-18.85,18.19-17.89,26.76,12.33,108.61,44.61,187.82,74.51,253.14,62.56,136.72,194.1,209.15,331.45,128.67,108.37-63.38,154.6-184.22,118.07-300.37-31.07-98.43-62.14-184.68-78.54-221.48-5.94-13.5-8.6-20.47-26.66-14.09Z"/>
    </g>
  </g>
</svg>
